<?xml version="1.0" standalone="no"?>
<!DOCTYPE svg PUBLIC "-//W3C//DTD SVG 20010904//EN"
 "http://www.w3.org/TR/2001/REC-SVG-20010904/DTD/svg10.dtd">
<svg version="1.0" xmlns="http://www.w3.org/2000/svg"
 width="256.000000pt" height="256.000000pt" viewBox="0 0 256.000000 256.000000"
 preserveAspectRatio="xMidYMid meet">
<metadata>
Created by potrace 1.11, written by Peter Selinger 2001-2013
</metadata>
<g transform="translate(0.000000,256.000000) scale(0.100000,-0.100000)"
fill="#000000" stroke="none">
<path d="M1049 1726 c-2 -2 -40 -6 -84 -10 -79 -6 -108 -9 -195 -21 -64 -9
-99 -15 -145 -25 -56 -12 -168 6 -202 33 -17 12 -144 -48 -228 -107 -117 -84
-182 -182 -192 -290 -11 -114 63 -204 243 -294 l62 -31 -35 68 c-28 55 -35 80
-34 121 3 155 161 285 451 373 105 32 195 53 275 63 17 2 41 6 55 9 127 26
610 26 735 1 11 -3 37 -5 58 -5 70 -2 37 -17 -75 -35 -345 -55 -769 -197 -998
-334 -19 -12 -48 -29 -65 -38 -41 -23 -199 -144 -260 -198 -41 -36 -47 -46
-32 -50 9 -3 25 -9 35 -12 46 -16 146 -40 287 -70 11 -2 47 -7 80 -10 33 -4
62 -8 65 -9 31 -18 571 -27 735 -13 100 9 275 33 337 47 53 12 95 8 171 -18
29 -10 59 -16 67 -13 135 44 308 179 365 283 84 155 7 297 -223 413 l-53 27
26 -40 c33 -49 53 -117 48 -156 -20 -139 -174 -262 -438 -348 -92 -30 -285
-73 -365 -82 -30 -3 -89 -10 -130 -15 -116 -13 -601 -1 -618 15 -9 8 63 98
117 146 170 155 537 306 1036 428 116 28 224 55 240 59 28 8 25 10 -50 34 -95
31 -245 63 -370 78 -49 6 -103 13 -120 16 -35 7 -570 16 -576 10z"/>
</g>
</svg>
